<svg width="66" height="33" viewBox="0 0 66 33" fill="none" xmlns="http://www.w3.org/2000/svg"><path d="M8.249 8.251a4.126 4.126 0 100-8.25 4.126 4.126 0 000 8.25zM57.748 10.607L49.5 24.749l-8.252-14.142H33L45.374 33h8.252L66 10.607h-8.252zM0 10.607v8.251a4.117 4.117 0 014.117 4.117v10.02h8.257V22.98A12.39 12.39 0 000 10.607zM36.1 24.748h-7.814a4.117 4.117 0 01-4.117-4.116v-1.765h8.684l-4.567-8.26h-4.117v-6.49h-8.234v16.509A12.39 12.39 0 0028.31 33h12.374l-4.585-8.252z" fill="#52B038"></path></svg>