<svg width="90" height="35" fill="none" xmlns="http://www.w3.org/2000/svg" viewBox="0 0 89 36">
                            <defs>
                                <style>.a {
                                        fill: #30408d;
                                    }

                                    .a, .b, .c {
                                        fill-rule: evenodd;
                                    }

                                    .b {
                                        fill: #2b2a29;
                                    }

                                    .c {
                                        fill: #d84043;
                                    }</style>
                            </defs>
                            <path class="a" d="M49.45,0a4.05,4.05,0,0,1,4.09,4,4.09,4.09,0,0,1-8.18,0A4.05,4.05,0,0,1,49.45,0ZM.26,16.09.14,19.55l1.49-.07c.45,0,1.3,0,2.54,0,0,1.46,0,3-.14,4.6s-.24,3.2-.43,4.76H8.75c0-1.73,0-3.37.13-4.91s.19-3,.32-4.45c.32,0,1.22,0,2.72.09.3,0,.73,0,1.29,0l.14-3.46Zm14.59,3.82c0,.44-.1,1.48-.23,3.12-.08,1-.12,1.77-.12,2.33A3,3,0,0,0,16,27.93a9.37,9.37,0,0,0,5.19,1.15,10.71,10.71,0,0,0,4.66-.86,4.32,4.32,0,0,0,2-1.87,4,4,0,0,0,.41-1.8c0-.7.05-1.9.16-3.58s.22-3.31.35-4.88H23.56c0,1,0,2.22-.14,3.76a39.49,39.49,0,0,1-.41,4,2.32,2.32,0,0,1-.53,1.26,1.86,1.86,0,0,1-1.3.35A1.37,1.37,0,0,1,20,24.89a2.81,2.81,0,0,1-.36-1.54c0-.62.08-1.78.24-3.46s.23-2.95.23-3.8H15c0,1.07-.05,2.34-.14,3.82Zm22.93-.51c.67.1,1,.41,1,.92a1.16,1.16,0,0,1-.71,1.1,3.11,3.11,0,0,1-1.37.25,3.82,3.82,0,0,1-.83-.08c.33,1.17.64,2.37.94,3.6.24.94.53,2.15.87,3.61H43c-.34-.9-.68-1.8-1-2.71s-.69-1.92-1-2.73A4.52,4.52,0,0,0,43,21.87a3.8,3.8,0,0,0,.66-2.26,3,3,0,0,0-1.93-3,8,8,0,0,0-3.13-.52H30.81q0,3.43-.14,6.66c-.1,2.16-.28,4.18-.52,6.05h5c0-.78,0-1.77.09-2.95s.12-2.3.18-3.35.09-2.11.09-3.16h1.16a8.27,8.27,0,0,1,1.14.06Zm11.79-3.14a7.72,7.72,0,0,0-3.55,2,6.28,6.28,0,0,0-1.66,4.55,5.47,5.47,0,0,0,2.46,4.81,9.48,9.48,0,0,0,5.45,1.47q4.4,0,6.58-2.35a6.35,6.35,0,0,0,1.73-4.5,5.66,5.66,0,0,0-2.39-4.89,9,9,0,0,0-5.43-1.53,11.65,11.65,0,0,0-3.19.45Zm5.1,3.89h0a2.93,2.93,0,0,1,.81,2.09,3.49,3.49,0,0,1-.86,2.36,2.77,2.77,0,0,1-2.21,1,2.86,2.86,0,0,1-3-3,3.4,3.4,0,0,1,.88-2.37,2.89,2.89,0,0,1,2.25-1,2.76,2.76,0,0,1,2.09.86Zm11.61,5.47q.06-1.78.18-3.78c.53,1.14,1.1,2.3,1.72,3.47s1.25,2.34,1.88,3.49h5.83c0-1.24,0-2.61.11-4.1s.16-2.95.28-4.38c.08-1.05.2-2.46.37-4.23h-4.6c-.1,2.39-.2,4.76-.29,7.14-.54-1.17-1.11-2.36-1.7-3.56-.67-1.36-1.27-2.55-1.81-3.58H62.31c0,1.34,0,2.82-.12,4.45s-.18,3.27-.31,4.89-.23,2.74-.3,3.37h4.63c0-.94,0-2,.07-3.18Z"></path>
                            <path class="b" d="M5.53,32.29l.07-.81H.07L0,32.29H2.21L1.91,36H3l.3-3.71ZM18.21,36l.06-.85H14.41L14.5,34h2.22l.06-.77H14.56l.08-1h3.81l.07-.8H13.58L13.21,36Zm12.87,0,.07-.85H27.49l.3-3.67H26.65L26.27,36ZM43.9,36l.07-.85H40.1L40.19,34h2.22l.07-.77H40.26l.08-1h3.81l.06-.8H39.27L38.9,36Zm12.34-2.85L57.37,33l0-.43a1.08,1.08,0,0,0-.18-.84,1.36,1.36,0,0,0-.93-.23H53.44a1.53,1.53,0,0,0-1,.23,1.22,1.22,0,0,0-.31.84L52,34.93a1.1,1.1,0,0,0,.18.85,1.43,1.43,0,0,0,.92.22h2.86a1.54,1.54,0,0,0,1-.23,1.22,1.22,0,0,0,.32-.84l0-.53-1.11-.23-.08,1h-3l.23-2.82h3l-.07.84Zm10.42-.84h3.71l-.23,2.82H66.43Zm-1.34,2.62h0a1.1,1.1,0,0,0,.18.85,1.42,1.42,0,0,0,.93.22H70a1.62,1.62,0,0,0,1-.22,1.25,1.25,0,0,0,.31-.85l.2-2.38a1.08,1.08,0,0,0-.18-.84,1.34,1.34,0,0,0-.93-.23H66.8a1.54,1.54,0,0,0-1,.23,1.22,1.22,0,0,0-.31.84ZM80.15,36l.25-3,1.9,2.5h.22l2.29-2.57L84.56,36h1L86,31.48h-.92l-2.49,2.68-2.06-2.68h-.91L79.24,36Z"></path>
                            <path class="c" d="M86.68,29.22H82c.55-1.74,2-7.23.67-11.94-2-6.86-12.37-11-27.41-11.93A5.32,5.32,0,0,0,55.39,4V3.81C72.46,4.37,84.83,8.47,88,15.51c2.57,5.8-.27,11.88-1.27,13.71ZM43.61,4h0a6.06,6.06,0,0,0,.13,1.21A185.65,185.65,0,0,0,2.47,11.84l-2.33.64v-.84c1.36-.39,2.74-.78,4.14-1.16A190.8,190.8,0,0,1,43.62,4s0,0,0,.06Z"></path>
                        </svg>