<svg xmlns="http://www.w3.org/2000/svg" width="124" height="42" viewBox="0 0 124 42" fill="none" class="w-[95px] h-8 md:w-[115px] md:h-[38px] mr-14" data-v-20cf7fbc=""><path d="M20.8019 39.215C31.0544 39.215 39.3656 30.9037 39.3656 20.6513C39.3656 10.3989 31.0544 2.08765 20.8019 2.08765C10.5495 2.08765 2.23828 10.3989 2.23828 20.6513C2.23828 30.9037 10.5495 39.215 20.8019 39.215Z" fill="#FF5733"></path><path d="M17.6182 6.07086C19.3481 4.34096 22.1392 4.34096 23.8691 6.07086L35.266 17.4678C36.9959 19.1977 36.9959 21.9888 35.266 23.7187L23.8691 35.1156C22.1392 36.8455 19.3481 36.8455 17.6182 35.1156L6.22125 23.7187C4.49135 21.9888 4.49135 19.1977 6.22125 17.4678L17.6182 6.07086Z" fill="#7000FF"></path><path d="M8.22754 12.5105C8.22754 10.0683 10.2046 8.09131 12.6468 8.09131H28.8264C31.2686 8.09131 33.2456 10.0683 33.2456 12.5105V28.6901C33.2456 31.1323 31.2686 33.1094 28.8264 33.1094H12.6613C10.2191 33.1094 8.24208 31.1323 8.24208 28.6901L8.22754 12.5105Z" fill="#7000FF"></path><path d="M25.9339 14.9382C26.4863 15.0545 27.0387 15.1708 27.562 15.3017C28.1289 15.447 28.6813 15.6215 29.2483 15.7814C29.321 15.8104 29.3646 15.8395 29.3646 15.9267C29.3646 17.6712 29.3791 19.4156 29.35 21.1746C29.321 23.0498 28.7249 24.7507 27.5911 26.248C26.3264 27.9052 24.6546 28.9809 22.6194 29.4752C21.8199 29.6641 21.0058 29.7368 20.1772 29.6787C18.2147 29.5624 16.4849 28.8791 15.0021 27.5999C13.4757 26.2916 12.5163 24.6344 12.1238 22.6428C12.0075 22.0759 11.9639 21.5089 11.9639 20.9274C11.9639 19.2702 11.9639 17.6276 11.9639 15.9704C11.9639 15.8541 11.9929 15.825 12.0947 15.7959C13.1559 15.4616 14.2462 15.1854 15.351 14.9818C15.3655 14.9818 15.3655 14.9818 15.3946 14.9818C15.3946 15.0255 15.3946 15.0691 15.3946 15.1127C15.3946 17.1915 15.38 19.2702 15.3946 21.3345C15.4091 22.3811 15.54 23.4133 15.9034 24.4018C16.1796 25.1868 16.6011 25.8845 17.2262 26.466C17.8077 27.0039 18.4909 27.3382 19.2614 27.4981C20.3517 27.7307 21.4274 27.7162 22.4886 27.3818C23.7388 26.9893 24.611 26.1462 25.1779 24.9687C25.4832 24.3436 25.6577 23.6749 25.7739 22.9917C25.9048 22.2358 25.9339 21.4653 25.9339 20.6949C25.9339 18.8487 25.9339 16.9879 25.9339 15.1417C25.9339 15.0545 25.9339 15.0109 25.9339 14.9382Z" fill="white"></path><path d="M22.1826 18.7905C21.1651 18.7905 20.1475 18.7905 19.1299 18.7905C19.1299 16.4064 19.1299 14.0224 19.1299 11.6383C19.4497 11.5365 21.5721 11.5365 22.1826 11.6238C22.1826 14.0078 22.1826 16.4064 22.1826 18.7905Z" fill="white"></path><path d="M82.4821 13.6736C82.4821 15.3163 81.5517 16.0722 80.1707 16.0722C78.7897 16.0722 77.9029 15.3308 77.9029 13.6736V8.26587H74.9229V13.7899C74.9229 17.3805 77.932 18.7906 80.1852 18.7906C82.4384 18.7906 85.4621 17.3805 85.4621 13.7899V8.26587H82.4821V13.6736Z" fill="white"></path><path d="M72.4084 10.7808V8.26587H62.7414V10.7808H68.4544L62.5088 16.0722V18.5871H72.7573V16.0722H66.4628L72.4084 10.7808Z" fill="white"></path><path d="M100.348 8.06226C98.4578 8.06226 97.0332 8.83271 96.3354 9.99567C95.6231 8.83271 94.0677 8.06226 92.4541 8.06226C89.2705 8.06226 87.6133 10.0829 87.6133 12.5832V18.587H90.5934V13.0193C90.5934 11.8273 91.2184 10.7661 92.6721 10.7661C92.9629 10.7516 93.2681 10.7952 93.5298 10.897C93.806 10.9987 94.0531 11.1586 94.2712 11.3767C94.4747 11.5802 94.6346 11.8419 94.7509 12.1181C94.8527 12.3943 94.8963 12.685 94.8817 12.9757V18.6015H97.8618V12.9757C97.8618 11.7837 98.5741 10.7661 99.9987 10.7661C101.423 10.7661 102.107 11.8273 102.107 13.0193V18.6015H105.087V12.5978C105.087 10.0974 103.546 8.07679 100.348 8.06226Z" fill="white"></path><path d="M57.5808 13.6736C57.5808 15.3163 56.6504 16.0722 55.284 16.0722C53.9175 16.0722 53.0017 15.3308 53.0017 13.6736V8.26587H50.0361V13.7899C50.0361 17.3805 53.0307 18.7906 55.2985 18.7906C57.5663 18.7906 60.5609 17.3805 60.5609 13.7899V8.26587H57.5808V13.6736Z" fill="white"></path><path d="M85.8252 27.847C85.8252 25.6664 84.1971 24.5762 80.9408 24.5762C78.7021 24.5762 76.0855 25.1867 76.0855 27.5853C76.0855 28.85 76.8414 29.8531 77.9607 30.202C79.1091 30.5654 80.2721 30.7253 81.4496 30.8271C82.1038 30.8852 83.3394 31.0742 83.3394 31.801C83.3249 32.4697 82.5689 32.8041 81.0716 32.8041C79.5162 32.8041 78.8475 32.4552 78.8475 31.5539V31.2486H75.8965V31.5539C75.8965 33.8071 77.6118 34.9265 81.0716 34.9265C84.546 34.941 86.2904 33.8653 86.2904 31.7574C86.2904 30.1584 85.1565 29.1844 83.7319 28.8936C82.3654 28.6174 80.9263 28.5738 79.7924 28.2831C79.2981 28.1523 79.0365 27.8761 79.0365 27.5853C79.0365 26.9748 79.647 26.6695 80.8827 26.6695C82.1183 26.6695 82.8888 26.8439 82.8888 27.8179L85.8252 27.847Z" fill="white"></path><path d="M57.2899 29.4897C57.2899 27.9197 56.3887 27.1928 55.0803 27.1928C53.7429 27.1928 52.8853 27.9197 52.8853 29.4897V34.7084H50.0215V29.4024C50.0215 25.9426 52.9143 24.5762 55.0803 24.5762C57.2318 24.5762 60.1392 25.9281 60.1392 29.4024V34.7084H57.2754L57.2899 29.4897Z" fill="white"></path><path d="M73.2806 31.2195V24.7652H70.4459L70.4604 26.3351C69.8499 25.4193 68.7596 24.5762 66.8407 24.5762C63.5263 24.5762 61.8255 27.1492 61.8255 29.7368C61.7674 32.3534 63.6862 34.9555 66.6954 34.9555C68.2799 34.9555 69.7336 34.2432 70.4314 32.9931C70.7221 33.8071 71.4199 34.7229 72.9026 34.7229H74.5308V32.3098H74.0656C73.5423 32.2953 73.2806 32.0772 73.2806 31.2195ZM67.4513 32.4406C65.8232 32.4406 64.6021 31.3213 64.6021 29.7368C64.6021 28.1813 65.8232 27.0765 67.4513 27.0765C69.1376 27.0765 70.3441 28.1668 70.3441 29.7368C70.3441 31.3213 69.1376 32.4406 67.4513 32.4406Z" fill="white"></path><path d="M90.8843 24.7651H88.0205V34.7084H90.8843V24.7651Z" fill="white"></path><path d="M101.569 24.7651L98.8944 31.801L95.6963 24.7651H92.3818L97.4552 35.1736C96.9755 36.3511 96.583 36.7 95.6236 36.7H94.1408V39.2003H95.8707C98.0076 39.2003 99.1706 38.0228 100.348 35.1881L104.666 24.7797L101.569 24.7651Z" fill="white"></path><path d="M116.048 31.2195V24.7652H113.213L113.228 26.3351C112.603 25.4193 111.527 24.5762 109.594 24.5762C106.279 24.5762 104.593 27.1492 104.593 29.7368C104.535 32.3534 106.454 34.9555 109.463 34.9555C111.062 34.9555 112.516 34.2432 113.213 32.9931C113.49 33.8071 114.202 34.7229 115.685 34.7229H117.313V32.3098H116.848C116.281 32.2953 116.048 32.0772 116.048 31.2195ZM110.204 32.4406C108.576 32.4406 107.355 31.3213 107.355 29.7368C107.355 28.1813 108.576 27.0765 110.204 27.0765C111.876 27.0765 113.097 28.1668 113.097 29.7368C113.097 31.3213 111.876 32.4406 110.204 32.4406Z" fill="white"></path></svg>