<?xml version="1.0" encoding="utf-8"?>
<!-- Generator: Adobe Illustrator 25.0.0, SVG Export Plug-In . SVG Version: 6.00 Build 0)  -->
<svg version="1.1" id="Layer_1" xmlns="http://www.w3.org/2000/svg" xmlns:xlink="http://www.w3.org/1999/xlink" x="0px" y="0px"
	 viewBox="0 0 4000 3000" style="enable-background:new 0 0 4000 3000;" xml:space="preserve">
<style type="text/css">
	.st0{fill:#DCF5FE;}
	.st1{fill:#C5F3FF;}
	.st2{fill:#020202;}
</style>
<g>
	<g>
		<polygon class="st0" points="1209.11,362.64 1083.69,488.06 769.68,174.05 90.81,852.92 718.83,852.92 1448.55,852.92 
			1699.4,852.92 		"/>
		<polygon class="st1" points="90.81,971.92 769.68,2825.95 1174.45,1613.24 1334.08,1795.68 1699.4,971.92 		"/>
	</g>
	<g>
		<path class="st2" d="M2853.98,1614.13c-33.95-31.49-77.38-47.13-130.47-47.13c-61.94,0-114.42,21.4-157.84,64.21
			c-43.22,42.8-64.82,95.28-64.82,157.63c0,59.47,19.75,107.83,59.27,145.08c39.51,37.04,91.58,55.56,155.99,55.56
			c26.14,0,52.07-2.88,77.58-9.05c25.31-5.97,51.24-15.23,77.79-27.78l15.02-119.15c-28.81,18.11-55.98,31.69-81.91,40.75
			c-25.93,9.26-49.6,13.79-70.79,13.79c-30.05,0-54.95-8.03-74.7-24.28c-19.76-16.05-30.66-37.25-32.72-63.38l258.88-7.05
			c7.9-0.22,15.02-5.53,16.76-13.25c0.1-0.45,0.19-0.92,0.26-1.38l0.48-3.22l0.41-2.68c1.23-16.87,1.85-29.22,1.85-36.84
			C2905.02,1685.95,2887.94,1645.41,2853.98,1614.13z M2797.39,1736.78l-167.93,5.14c4.53-25.52,15.02-45.27,31.28-59.47
			c16.26-14.2,36.63-21.4,61.12-21.4c21.61,0,39.72,6.59,54.12,19.55c14.2,13.17,21.4,29.84,21.4,50.21V1736.78z"/>
		<path class="st2" d="M2042.85,783.72v373.3l136.24-19.76V765.41L2042.85,783.72z M2163.04,586.78
			c-14.2-14.2-31.69-21.4-52.68-21.4c-20.58,0-38.07,7.2-52.48,21.61c-14.41,14.2-21.4,31.69-21.4,52.27
			c0,20.37,7.2,38.07,21.81,52.68c14.61,14.82,31.9,22.22,52.07,22.22c20.58,0,38.07-7.41,52.48-22.02
			c14.2-14.61,21.4-32.1,21.4-52.89S2177.24,600.98,2163.04,586.78z"/>
		<path class="st2" d="M2495.59,1033.35c-30.46,0-54.95-9.06-73.67-26.75c-18.52-17.7-27.78-41.36-27.78-70.59
			c0-27.37,9.88-50.42,30.05-68.94c19.96-18.52,45.27-27.78,75.73-27.78c16.88,0,34.98,3.5,54.74,10.29
			c19.55,6.59,39.92,16.46,61.33,29.43l15.02-120.39c-21.81-11.32-44.45-19.55-67.91-25.31c-23.67-5.56-47.74-8.23-72.23-8.23
			c-67.5,0-123.48,20.79-167.93,62.56c-44.66,41.57-66.88,93.22-66.88,154.96c0,59.27,20.79,108.25,62.15,146.94
			c41.36,38.69,94.25,58.03,158.87,58.03c24.28,0,47.95-3.08,71.2-9.67c23.05-6.38,46.3-16.46,70.17-29.84l12.55-126.77
			c-28.4,18.32-53.3,31.49-74.91,39.72C2534.7,1029.23,2514.53,1033.35,2495.59,1033.35z"/>
		<g>
			<path class="st2" d="M2036.39,1990.6v-631.95l134.56-18.48v261.37c17.19-8.88,33.75-15.55,49.65-19.99
				c15.91-4.44,31.31-6.66,46.21-6.66c52.73,0,95.44,18.7,128.11,56.1s49.01,86.19,49.01,146.38c0,63.62-19.42,114.93-58.25,153.9
				c-38.83,38.98-89.92,58.47-153.25,58.47c-8.03,0-17.06-0.51-27.08-1.51c-10.04-1-21.36-2.51-33.96-4.51l-49.01-11.61
				L2036.39,1990.6z M2170.95,1883.12c9.74,2.58,17.98,4.44,24.72,5.58c6.73,1.15,12.83,1.72,18.27,1.72
				c26.37,0,48.43-10.74,66.2-32.24c17.77-21.5,26.65-48.72,26.65-81.68c0-29.8-7.38-53.81-22.14-72.01
				c-14.76-18.2-33.9-27.3-57.39-27.3c-6.59,0-14.55,1.65-23.86,4.94c-9.31,3.3-20.14,8.38-32.46,15.27V1883.12z"/>
			<path class="st2" d="M3117.57,1972.11h-135.42v-387.33h125.96l2.58,67.92c15.47-27.22,33.6-46.99,54.38-59.32
				c20.78-12.33,46.64-18.49,77.6-18.49h10.74v144.44h-14.19h-15.05c-42.13,0-70.43,4.8-84.9,14.41s-21.71,32.74-21.71,69.42
				V1972.11z"/>
			<path class="st2" d="M3708.67,1584.77V1936c0,35.54-1.72,62.26-5.16,80.17c-3.44,17.91-9.03,34.32-16.77,49.22
				c-16.05,30.96-39.4,54.38-70.07,70.28c-30.67,15.91-67.78,23.86-111.34,23.86c-26.08,0-52.52-2.87-79.31-8.61
				c-26.8-5.73-55.24-14.61-85.33-26.65l-1.72-107.46c28.65,15.47,54.74,26.86,78.24,34.18c23.5,7.3,45.57,10.95,66.2,10.95
				c30.09,0,53.45-7.16,70.07-21.49c16.62-14.34,24.94-34.54,24.94-60.62v-26.22c-15.48,9.76-30.81,16.92-46,21.5
				c-15.2,4.58-31.24,6.87-48.15,6.87c-54.74,0-98.95-18.34-132.62-55.03c-33.68-36.68-50.51-84.96-50.51-144.87
				c0-62.18,19.05-113.71,57.17-154.54c38.11-40.84,86.26-61.26,144.44-61.26c13.47,0,27.51,1.86,42.13,5.58
				c14.62,3.73,30.8,9.47,48.57,17.2L3708.67,1584.77z M3573.68,1683.22c-8.02-4.58-15.69-7.88-23-9.88
				c-7.31-2.01-14.55-3.01-21.71-3.01c-25.51,0-47,10.68-64.48,32.03c-17.48,21.35-26.22,48.22-26.22,80.6
				c0,30.39,7.66,55.68,23,75.88c15.33,20.21,34.03,30.3,56.1,30.3c8.6,0,17.69-2.43,27.3-7.3c9.6-4.87,19.27-12.04,29.01-21.5
				V1683.22z"/>
		</g>
		<path class="st2" d="M3038.68,772.2c-33.95-31.49-77.38-47.13-130.47-47.13c-61.94,0-114.42,21.4-157.84,64.21
			c-43.22,42.8-64.82,95.28-64.82,157.63c0,59.47,19.76,107.83,59.27,145.08c39.51,37.04,91.58,55.56,155.99,55.56
			c26.14,0,52.07-2.88,77.58-9.05c25.31-5.97,51.24-15.23,77.79-27.78l15.02-119.15c-28.81,18.11-55.98,31.69-81.91,40.75
			c-25.93,9.26-49.6,13.79-70.79,13.79c-30.05,0-54.95-8.03-74.7-24.28c-19.76-16.05-30.66-37.25-32.72-63.38l258.88-7.05
			c7.9-0.22,15.02-5.53,16.76-13.25c0.1-0.45,0.19-0.92,0.26-1.38l0.48-3.22l0.41-2.68c1.23-16.87,1.85-29.22,1.85-36.84
			C3089.72,844.02,3072.64,803.48,3038.68,772.2z M2982.09,894.85l-167.93,5.14c4.53-25.52,15.02-45.27,31.28-59.47
			c16.26-14.2,36.63-21.4,61.12-21.4c21.61,0,39.72,6.59,54.12,19.55c14.2,13.17,21.4,29.84,21.4,50.21V894.85z"/>
		<g>
			<g>
				<path class="st2" d="M3832.37,1459.42c-42.36,0-76.81-34.46-76.81-76.81s34.46-76.81,76.81-76.81
					c42.36,0,76.81,34.46,76.81,76.81S3874.73,1459.42,3832.37,1459.42z M3832.37,1316.09c-36.67,0-66.51,29.84-66.51,66.51
					s29.84,66.51,66.51,66.51s66.51-29.84,66.51-66.51S3869.05,1316.09,3832.37,1316.09z"/>
			</g>
			<g>
				<path class="st2" d="M3806.99,1348.33h30.55c8.62,0,15.37,2.55,19.78,6.86c3.62,3.82,5.68,8.81,5.68,14.79v0.2
					c0,11.26-6.76,18.02-16.26,20.76l18.51,25.95h-14.3l-16.84-23.89h-15.08v23.89h-12.04V1348.33z M3836.66,1382.31
					c8.62,0,14.1-4.41,14.1-11.46v-0.2c0-7.44-5.19-11.36-14.2-11.36h-17.53v23.01H3836.66z"/>
			</g>
		</g>
		<g>
			<path class="st2" d="M2074.55,2257.66h80.7c20.56,0,36.75,5.65,47.03,15.93c7.97,7.97,12.08,17.73,12.08,30.33
				c0,21.59-12.34,33.16-25.7,40.09c21.08,7.2,35.72,19.28,35.72,44.2c0,32.13-26.47,49.35-66.56,49.35h-83.27V2257.66z
				 M2148.82,2333.48c20.3,0,33.92-7.97,33.92-24.93c0-14.13-11.31-22.87-31.61-22.87h-45.49v47.81H2148.82z M2158.08,2409.55
				c21.59,0,34.69-8.48,34.69-25.19c0-15.16-12.08-24.16-37.01-24.16h-50.12v49.35H2158.08z"/>
			<path class="st2" d="M2300.97,2286.96h-57.05v-29.3h145.98v29.3h-57.05v150.6h-31.87V2286.96z"/>
			<path class="st2" d="M2423.31,2257.66h31.61v151.12h94.58v28.79h-126.19V2257.66z"/>
			<path class="st2" d="M2738.9,2437.56v-16.71c-9.25,11.05-23.39,19.53-43.95,19.53c-25.7,0-48.32-14.65-48.32-42.41
				c0-30.07,23.39-44.46,55-44.46c16.45,0,26.98,2.31,37.52,5.65v-2.57c0-18.76-11.82-29.04-33.41-29.04
				c-15.16,0-26.47,3.34-38.81,8.48l-8.48-24.93c14.91-6.68,29.56-11.31,51.66-11.31c40.09,0,59.62,21.07,59.62,57.31v80.44H2738.9z
				 M2739.67,2380.76c-7.97-3.08-19.02-5.4-31.1-5.4c-19.53,0-31.1,7.97-31.1,21.59c0,12.85,11.56,20.05,26.21,20.05
				c20.56,0,35.98-11.57,35.98-28.53V2380.76z"/>
			<path class="st2" d="M2806.49,2463l11.57-23.39c14.39,9,29.81,14.39,48.32,14.39c27.76,0,42.92-14.39,42.92-41.64v-10.54
				c-11.31,14.65-25.44,24.93-47.8,24.93c-31.87,0-61.68-23.64-61.68-63.99c0-40.09,30.07-63.74,61.68-63.74
				c22.87,0,37.01,10.54,47.55,23.13v-20.3h31.1v107.94c0,22.87-5.91,39.84-17.22,51.14c-12.33,12.34-31.35,18.25-55.77,18.25
				C2844.79,2479.2,2823.97,2473.54,2806.49,2463z M2909.55,2362.77c0-22.36-18.25-37.52-39.84-37.52
				c-21.59,0-38.55,14.91-38.55,37.78c0,22.36,17.22,37.52,38.55,37.52C2891.3,2400.55,2909.55,2385.13,2909.55,2362.77z"/>
			<path class="st2" d="M2971.49,2369.71c0-38.81,27.5-70.68,66.31-70.68c43.18,0,65.02,33.92,65.02,72.99
				c0,2.06-0.26,7.2-0.51,8.74h-99.72c3.34,22.11,19.02,34.44,39.06,34.44c15.16,0,25.96-5.65,36.75-16.19l18.25,16.19
				c-12.85,15.42-30.58,25.45-55.51,25.45C3001.82,2440.65,2971.49,2412.12,2971.49,2369.71z M3071.98,2360.2
				c-2.06-20.05-13.88-35.72-34.44-35.72c-19.02,0-32.38,14.65-35.21,35.72H3071.98z"/>
			<path class="st2" d="M3134.17,2301.86h31.1v21.07c8.74-12.85,21.33-23.9,42.41-23.9c30.58,0,48.32,20.56,48.32,52.17v86.35h-31.1
				v-77.1c0-21.08-10.54-33.15-29.04-33.15c-17.99,0-30.58,12.6-30.58,33.67v76.59h-31.1V2301.86z"/>
			<path class="st2" d="M3286.06,2369.97c0-38.55,29.81-70.93,70.42-70.93c25.7,0,41.63,9.51,54.23,23.39l-19.28,20.82
				c-9.51-10.02-19.53-16.96-35.21-16.96c-22.62,0-39.06,19.53-39.06,43.69c0,24.16,16.7,43.69,40.61,43.69
				c14.65,0,25.44-6.94,35.21-16.96l18.76,18.5c-13.36,14.91-29.04,25.45-55.51,25.45
				C3315.87,2440.65,3286.06,2409.03,3286.06,2369.97z"/>
			<path class="st2" d="M3435.89,2471.23l10.54-23.13c5.65,3.08,11.82,5.14,18.25,5.14c8.74,0,14.13-3.86,19.28-15.68l-56.54-135.7
				h33.15l38.55,100.75l35.21-100.75h32.38l-53.97,139.55c-10.79,27.76-22.87,38.03-44.72,38.03
				C3454.91,2479.45,3445.4,2476.37,3435.89,2471.23z"/>
		</g>
	</g>
</g>
</svg>
